<?xml version="1.0" encoding="UTF-8" standalone="no"?>
<svg xmlns:rdf="http://www.w3.org/1999/02/22-rdf-syntax-ns#" xmlns="http://www.w3.org/2000/svg" height="86.255" width="86.257" version="1.1" xmlns:cc="http://creativecommons.org/ns#" xmlns:dc="http://purl.org/dc/elements/1.1/" viewBox="0 0 27.602251 27.601499">
	<metadata>
		<rdf:RDF>
			<cc:Work rdf:about="">
				<dc:format>image/svg+xml</dc:format>
				<dc:type rdf:resource="http://purl.org/dc/dcmitype/StillImage"/>
				<dc:title/>
			</cc:Work>
		</rdf:RDF>
	</metadata>
	<path d="m25.903,12.987-1.101-0.217c-2.269-0.447-2.698-2.057-0.959-3.577l0.845-0.738c1.739-1.521,1.375-2.154-0.812-1.408l-1.065,0.361c-2.186,0.745-3.363-0.434-2.617-2.619l0.363-1.062c0.745-2.187,0.111-2.553-1.408-0.812l-0.74,0.847c-1.521,1.738-3.131,1.307-3.573-0.959l-0.223-1.103c-0.445-2.267-1.181-2.267-1.625,0l-0.217,1.101c-0.446,2.266-2.057,2.697-3.577,0.959l-0.738-0.846c-1.521-1.738-2.155-1.374-1.409,0.813l0.362,1.062c0.745,2.186-0.434,3.364-2.619,2.619l-1.062-0.362c-2.187-0.746-2.551-0.112-0.813,1.408l0.846,0.738c1.738,1.521,1.307,3.13-0.959,3.577l-1.102,0.217c-2.267,0.447-2.267,1.179,0,1.626l1.102,0.219c2.266,0.445,2.697,2.056,0.959,3.576l-0.847,0.74c-1.739,1.52-1.373,2.15,0.813,1.405l1.062-0.362c2.186-0.744,3.364,0.434,2.619,2.616l-0.362,1.065c-0.746,2.186-0.112,2.551,1.408,0.812l0.738-0.845c1.521-1.739,3.131-1.311,3.577,0.959l0.219,1.104c0.445,2.267,1.178,2.267,1.625,0l0.215-1.101c0.447-2.268,2.059-2.698,3.578-0.959l0.74,0.845c1.521,1.739,2.152,1.374,1.406-0.812l-0.361-1.065c-0.746-2.186,0.433-3.364,2.615-2.618l1.064,0.364c2.187,0.746,2.552,0.111,0.812-1.407l-0.845-0.74c-1.739-1.521-1.312-3.131,0.959-3.576l1.103-0.219c2.27-0.448,2.27-1.179,0.004-1.626zm-12.102,8.417c-4.2,0-7.603-3.4-7.603-7.604s3.403-7.603,7.603-7.603,7.604,3.403,7.604,7.603-3.404,7.604-7.604,7.604zm0-13.807c-3.421,0-6.203,2.782-6.203,6.203s2.782,6.203,6.203,6.203,6.203-2.782,6.203-6.203-2.782-6.203-6.203-6.203z" fill="#FFF"/>
</svg>
