<?xml version="1.0" encoding="UTF-8" standalone="no"?>
<svg xmlns:rdf="http://www.w3.org/1999/02/22-rdf-syntax-ns#" xmlns="http://www.w3.org/2000/svg" height="64.594" width="90.382" version="1.1" xmlns:cc="http://creativecommons.org/ns#" xmlns:dc="http://purl.org/dc/elements/1.1/" viewBox="0 0 28.922251 20.670249">
	<metadata>
		<rdf:RDF>
			<cc:Work rdf:about="">
				<dc:format>image/svg+xml</dc:format>
				<dc:type rdf:resource="http://purl.org/dc/dcmitype/StillImage"/>
				<dc:title/>
			</cc:Work>
		</rdf:RDF>
	</metadata>
	<path d="m23.753,11.824c-1.035-1.985-3.07-3.236-5.348-3.236-0.526,0-1.045,0.067-1.547,0.2-1.39-1.809-3.517-2.868-5.83-2.868-3.513,0-6.525,2.523-7.219,5.891-2.151,0.313-3.809,2.17-3.809,4.406,0,2.455,1.998,4.453,4.453,4.453h18.593c2.456,0,4.455-1.998,4.455-4.453,0-2.202-1.63-4.051-3.748-4.393zm-0.707,6.846h-18.593c-1.353,0-2.453-1.102-2.453-2.453s1.098-2.45,2.44-2.45h0.004l1.154,0.075,0.077-0.976c0.219-2.773,2.57-4.945,5.352-4.945,1.882,0,3.595,0.964,4.583,2.578l0.447,0.731,0.791-0.33c0.492-0.207,1.019-0.311,1.557-0.311,1.664,0,3.137,1,3.752,2.549l0.248,0.623,0.67,0.008c1.338,0.016,2.426,1.114,2.426,2.449,0,1.35-1.102,2.452-2.455,2.452zm4.661-9.393-0.786-0.155c-1.619-0.319-1.927-1.469-0.686-2.555l0.604-0.527c1.242-1.086,0.98-1.539-0.58-1.006l-0.761,0.259c-1.562,0.533-2.401-0.309-1.87-1.871l0.262-0.759c0.53-1.562,0.078-1.823-1.008-0.581l-0.527,0.604c-1.086,1.242-2.234,0.934-2.556-0.685l-0.155-0.787c-0.316-1.619-0.843-1.619-1.16,0l-0.154,0.787c-0.319,1.619-1.472,1.927-2.558,0.685l-0.525-0.604c-1.086-1.242-1.539-0.981-1.006,0.581l0.259,0.759c0.371,1.088,0.063,1.813-0.677,1.981,0.48,0.169,0.948,0.375,1.388,0.63,0.983-0.991,2.349-1.605,3.854-1.605,3,0,5.433,2.431,5.433,5.431,0,0.365-0.037,0.721-0.104,1.065,0.004,0.006,0.008,0.011,0.012,0.017,0.421,0.108,0.812,0.282,1.186,0.482,0.188-0.384,0.627-0.689,1.337-0.829l0.786-0.154c1.611-0.321,1.611-0.844-0.008-1.163zm-10.466-1.592c0.383-0.064,0.771-0.096,1.164-0.096,1.959,0,3.771,0.811,5.08,2.18-0.049-2.401-2.01-4.342-4.422-4.342-1.158,0-2.205,0.457-2.994,1.186,0.418,0.318,0.814,0.672,1.172,1.072z" fill="#FFF"/>
</svg>
