<?xml version="1.0" encoding="UTF-8" standalone="no"?>
<svg xmlns:rdf="http://www.w3.org/1999/02/22-rdf-syntax-ns#" xmlns="http://www.w3.org/2000/svg" height="61.956" width="85.941" version="1.1" xmlns:cc="http://creativecommons.org/ns#" xmlns:dc="http://purl.org/dc/elements/1.1/" viewBox="0 0 27.501001 19.826">
	<metadata>
		<rdf:RDF>
			<cc:Work rdf:about="">
				<dc:format>image/svg+xml</dc:format>
				<dc:type rdf:resource="http://purl.org/dc/dcmitype/StillImage"/>
				<dc:title/>
			</cc:Work>
		</rdf:RDF>
	</metadata>
	<path d="m23.753,10.98c-1.035-1.985-3.07-3.236-5.348-3.236-0.526,0-1.045,0.067-1.547,0.2-1.39-1.809-3.517-2.868-5.83-2.868-3.513,0-6.525,2.523-7.219,5.891-2.151,0.313-3.809,2.17-3.809,4.406,0,2.455,1.998,4.453,4.453,4.453h18.593c2.456,0,4.455-1.998,4.455-4.453,0-2.202-1.63-4.051-3.748-4.393zm-0.707,6.846h-18.593c-1.353,0-2.453-1.102-2.453-2.453s1.098-2.45,2.44-2.45h0.004l1.154,0.075,0.077-0.976c0.219-2.773,2.57-4.945,5.352-4.945,1.882,0,3.595,0.964,4.583,2.578l0.447,0.731,0.791-0.33c0.492-0.207,1.019-0.311,1.557-0.311,1.664,0,3.137,1,3.752,2.549l0.248,0.623,0.67,0.008c1.338,0.016,2.426,1.114,2.426,2.449,0,1.35-1.102,2.452-2.455,2.452zm-5.805-10.985c0.383-0.064,0.771-0.096,1.164-0.096,2.427,0,4.642,1.234,5.924,3.25,0.441-0.26,0.863-0.562,1.23-0.956,0.572-0.616,0.974-1.332,1.207-2.086-1.72,0.642-3.724,0.329-5.154-1.007-1.678-1.564-2.016-4.005-1.008-5.946-1.106,0.203-2.16,0.744-2.986,1.63-1.112,1.192-1.562,2.749-1.409,4.252,0.365,0.291,0.715,0.605,1.032,0.959z" fill="#FFF"/>
</svg>
