<?xml version="1.0" encoding="UTF-8" standalone="no"?>
<svg xmlns:rdf="http://www.w3.org/1999/02/22-rdf-syntax-ns#" xmlns="http://www.w3.org/2000/svg" height="46.094" width="85.953" version="1.1" xmlns:cc="http://creativecommons.org/ns#" xmlns:dc="http://purl.org/dc/elements/1.1/" viewBox="0 0 27.505 14.75">
	<metadata>
		<rdf:RDF>
			<cc:Work rdf:about="">
				<dc:format>image/svg+xml</dc:format>
				<dc:type rdf:resource="http://purl.org/dc/dcmitype/StillImage"/>
				<dc:title/>
			</cc:Work>
		</rdf:RDF>
	</metadata>
	<path d="M23.046,14.75h-18.593c-2.455,0-4.453-1.998-4.453-4.453,0-2.236,1.657-4.093,3.809-4.406,0.694-3.368,3.706-5.891,7.219-5.891,2.313,0,4.44,1.059,5.833,2.869,0.502-0.133,1.021-0.2,1.545-0.2,2.277,0,4.312,1.251,5.351,3.236,2.118,0.342,3.748,2.188,3.748,4.393-0.004,2.454-2.003,4.452-4.459,4.452zm-18.606-6.903c-1.342,0-2.44,1.099-2.44,2.45,0,1.354,1.1,2.453,2.453,2.453h18.593c1.354,0,2.455-1.102,2.455-2.453,0-1.334-1.088-2.433-2.426-2.449l-0.67-0.008-0.248-0.623c-0.615-1.548-2.088-2.549-3.752-2.549-0.538,0-1.062,0.104-1.557,0.311l-0.791,0.33-0.447-0.731c-0.987-1.614-2.7-2.578-4.583-2.578-2.782,0-5.133,2.172-5.352,4.945l-0.077,0.976-1.154-0.075c-0.001,0.001-0.002,0.001-0.004,0.001z" fill="#FFF"/>
</svg>
