<?xml version="1.0" encoding="UTF-8" standalone="no"?>
<svg xmlns:rdf="http://www.w3.org/1999/02/22-rdf-syntax-ns#" xmlns="http://www.w3.org/2000/svg" height="60.741" width="85.956" version="1.1" xmlns:cc="http://creativecommons.org/ns#" xmlns:dc="http://purl.org/dc/elements/1.1/" viewBox="0 0 27.506001 19.437001">
	<metadata>
		<rdf:RDF>
			<cc:Work rdf:about="">
				<dc:format>image/svg+xml</dc:format>
				<dc:type rdf:resource="http://purl.org/dc/dcmitype/StillImage"/>
				<dc:title/>
			</cc:Work>
		</rdf:RDF>
	</metadata>
	<path d="m26.068,11.74c0.512-0.858,0.807-1.859,0.807-2.928,0-3.17-2.579-5.75-5.75-5.75-0.037,0-0.073,0-0.11,0.002-1.229-1.868-3.311-3.002-5.576-3.002-1.138,0-2.234,0.285-3.225,0.829-1.118-0.584-2.357-0.891-3.62-0.891-4.324-0.001-7.843,3.518-7.843,7.843,0,1.326,0.343,2.568,0.928,3.663-1.022,0.816-1.679,2.071-1.679,3.478,0,2.455,1.998,4.453,4.453,4.453h18.593c2.456,0,4.455-1.998,4.46-4.452,0-1.282-0.561-2.431-1.438-3.245zm-17.473-9.741c1.096,0,2.169,0.311,3.104,0.9l0.555,0.35,0.542-0.371c0.781-0.534,1.695-0.816,2.643-0.816,1.752,0,3.35,0.968,4.156,2.527l0.325,0.625,0.798-0.11c0.135-0.019,0.268-0.042,0.407-0.042,2.067,0,3.75,1.682,3.75,3.75,0,0.709-0.218,1.358-0.565,1.921-0.181-0.054-0.361-0.11-0.552-0.141-1.04-1.985-3.075-3.236-5.353-3.236-0.523,0-1.043,0.067-1.545,0.2-1.392-1.81-3.519-2.869-5.832-2.869-3.513,0-6.525,2.523-7.219,5.891-0.112,0.016-0.216,0.054-0.325,0.078-0.462-0.836-0.733-1.792-0.733-2.813,0-3.222,2.622-5.844,5.844-5.844zm14.451,15.438h-18.593c-1.353,0-2.453-1.1-2.453-2.453,0-1.351,1.098-2.45,2.44-2.45,0.002,0,0.003,0,0.004-0.001l1.154,0.075,0.077-0.976c0.219-2.773,2.57-4.945,5.352-4.945,1.883,0,3.596,0.964,4.583,2.578l0.447,0.731,0.791-0.33c0.493-0.207,1.019-0.311,1.557-0.311,1.664,0,3.137,1.001,3.752,2.549l0.248,0.623,0.67,0.008c1.338,0.016,2.426,1.115,2.426,2.449,0,1.351-1.102,2.453-2.455,2.453z" fill="#FFF"/>
</svg>
