<?xml version="1.0" encoding="UTF-8" standalone="no"?>
<svg xmlns:rdf="http://www.w3.org/1999/02/22-rdf-syntax-ns#" xmlns="http://www.w3.org/2000/svg" height="87.278" width="85.934" version="1.1" xmlns:cc="http://creativecommons.org/ns#" xmlns:dc="http://purl.org/dc/elements/1.1/" viewBox="0 0 27.499001 27.928999">
	<metadata>
		<rdf:RDF>
			<cc:Work rdf:about="">
				<dc:format>image/svg+xml</dc:format>
				<dc:type rdf:resource="http://purl.org/dc/dcmitype/StillImage"/>
				<dc:title/>
			</cc:Work>
		</rdf:RDF>
	</metadata>
	<path d="m7.555,17.437c0.198,0.366,0.587,1.104,1.029,2h1.885c0.259-0.657,0.562-1.345,0.87-2h-3.784zm3.219,4.575c0,1.643,1.333,2.976,2.976,2.976s2.977-1.333,2.977-2.976c0-1.644-2.977-7.132-2.977-7.132s-2.976,5.491-2.976,7.132zm-7.125,2.939c0,1.645,1.333,2.978,2.976,2.978s2.976-1.333,2.976-2.978c0-1.644-2.976-7.133-2.976-7.133s-2.976,5.489-2.976,7.133zm14.063,0c0,1.645,1.333,2.978,2.976,2.978,1.646,0,2.979-1.333,2.979-2.978,0-1.644-2.979-7.133-2.979-7.133s-2.976,5.489-2.976,7.133zm2.045-7.514h-3.596c0.308,0.655,0.61,1.343,0.868,2h1.699c0.442-0.896,0.833-1.633,1.029-2zm6.309-5.693c0.513-0.859,0.809-1.86,0.809-2.932,0-3.17-2.579-5.75-5.75-5.75-0.037,0-0.073,0-0.109,0.002-1.229-1.868-3.312-3.002-5.578-3.002-1.137,0-2.236,0.285-3.224,0.829-1.118-0.584-2.357-0.891-3.62-0.891-4.325-0.001-7.844,3.518-7.844,7.843,0,1.326,0.343,2.568,0.928,3.663-1.021,0.816-1.678,2.071-1.678,3.478,0,2.455,1.998,4.453,4.453,4.453h0.213c0.441-0.895,0.831-1.632,1.029-2h-1.243c-1.353,0-2.453-1.102-2.453-2.453s1.098-2.45,2.44-2.45h0.004l1.154,0.075,0.077-0.976c0.219-2.773,2.57-4.945,5.352-4.945,1.882,0,3.595,0.964,4.583,2.578l0.447,0.731,0.791-0.33c0.492-0.207,1.019-0.311,1.557-0.311,1.664,0,3.137,1,3.752,2.549l0.248,0.623,0.67,0.008c1.338,0.016,2.426,1.114,2.426,2.449,0,1.353-1.102,2.453-2.455,2.453h-1.427c0.198,0.368,0.589,1.104,1.03,2h0.396c2.456,0,4.455-1.998,4.455-4.453,0.001-1.279-0.56-2.427-1.433-3.241zm-1.755-1.01c-0.184-0.055-0.365-0.111-0.559-0.143-1.035-1.985-3.07-3.236-5.348-3.236-0.526,0-1.045,0.067-1.547,0.2-1.39-1.809-3.517-2.868-5.83-2.868-3.513,0-6.525,2.523-7.219,5.891-0.112,0.016-0.216,0.054-0.326,0.078-0.461-0.836-0.732-1.792-0.732-2.813,0-3.222,2.622-5.844,5.844-5.844,1.096,0,2.169,0.311,3.104,0.9l0.555,0.35,0.542-0.371c0.781-0.534,1.695-0.816,2.643-0.816,1.752,0,3.347,0.968,4.156,2.527l0.325,0.625,0.798-0.11c0.135-0.019,0.268-0.042,0.407-0.042,2.067,0,3.75,1.682,3.75,3.75,0.001,0.709-0.217,1.359-0.563,1.922z" fill="#FFF"/>
</svg>
