<?xml version="1.0" encoding="UTF-8" standalone="no"?>
<svg xmlns:rdf="http://www.w3.org/1999/02/22-rdf-syntax-ns#" xmlns="http://www.w3.org/2000/svg" height="74.347" width="85.941" version="1.1" xmlns:cc="http://creativecommons.org/ns#" xmlns:dc="http://purl.org/dc/elements/1.1/" viewBox="0 0 27.501001 23.791001">
	<metadata>
		<rdf:RDF>
			<cc:Work rdf:about="">
				<dc:format>image/svg+xml</dc:format>
				<dc:type rdf:resource="http://purl.org/dc/dcmitype/StillImage"/>
				<dc:title/>
			</cc:Work>
		</rdf:RDF>
	</metadata>
	<path d="M13.884,17.225,10.601,13.942,17.167,7.379,4.034,13.941,7.317,17.224,0.751,23.791,13.884,17.225zm-1.061-2.475h1.19l4.001-2h-4.812l-1.191,1.191,0.812,0.809zm10.93-8.846c-1.035-1.985-3.07-3.236-5.348-3.236-0.526,0-1.045,0.067-1.547,0.2-1.39-1.809-3.517-2.868-5.83-2.868-3.513,0-6.525,2.523-7.219,5.891-2.151,0.313-3.809,2.17-3.809,4.406,0,2.04,1.388,3.747,3.263,4.271-0.179-0.221-0.263-0.504-0.217-0.787,0.052-0.317,0.252-0.592,0.54-0.734l0.64-0.32c-1.245-0.118-2.225-1.157-2.225-2.43,0-1.351,1.098-2.45,2.44-2.45h0.004l1.154,0.075,0.077-0.976c0.219-2.773,2.57-4.945,5.352-4.945,1.882,0,3.595,0.964,4.583,2.578l0.447,0.731,0.791-0.33c0.495-0.207,1.021-0.311,1.557-0.311,1.664,0,3.14,1,3.755,2.549l0.245,0.623,0.673,0.008c1.338,0.016,2.426,1.114,2.426,2.449,0,1.136-0.776,2.083-1.828,2.361l-2.096,2.091h1.465c2.456,0,4.455-1.998,4.455-4.453,0-2.202-1.63-4.051-3.748-4.393zm0.331,4.93-10.066,5.032,2.516,2.517-5.032,5.033,10.067-5.033-2.518-2.517,5.033-5.032z" fill="#FFF"/>
</svg>
