<?xml version="1.0" encoding="UTF-8" standalone="no"?>
<svg xmlns:rdf="http://www.w3.org/1999/02/22-rdf-syntax-ns#" xmlns="http://www.w3.org/2000/svg" height="88.506" width="85.938" version="1.1" xmlns:cc="http://creativecommons.org/ns#" xmlns:dc="http://purl.org/dc/elements/1.1/" viewBox="0 0 27.5 28.322">
	<metadata>
		<rdf:RDF>
			<cc:Work rdf:about="">
				<dc:format>image/svg+xml</dc:format>
				<dc:type rdf:resource="http://purl.org/dc/dcmitype/StillImage"/>
				<dc:title/>
			</cc:Work>
		</rdf:RDF>
	</metadata>
	<path d="m12.361,25.027h-1.049l-0.367-0.637,0.524-0.908c0.138-0.238,0.056-0.545-0.184-0.684-0.239-0.139-0.545-0.057-0.683,0.184l-0.524,0.908h-0.735l-0.523-0.908c-0.14-0.238-0.445-0.322-0.684-0.184-0.239,0.139-0.321,0.443-0.183,0.684l0.524,0.909-0.367,0.636h-1.048c-0.276,0-0.5,0.225-0.5,0.5,0,0.276,0.224,0.5,0.5,0.5h1.049l0.367,0.637-0.524,0.908c-0.139,0.239-0.057,0.545,0.183,0.684,0.079,0.048,0.165,0.066,0.25,0.066,0.173,0,0.341-0.09,0.434-0.25l0.525-0.908h0.732l0.525,0.908c0.093,0.16,0.261,0.25,0.434,0.25,0.085,0,0.171-0.021,0.249-0.066,0.239-0.139,0.321-0.441,0.184-0.684l-0.525-0.908,0.367-0.637h1.05c0.276,0,0.5-0.224,0.5-0.5s-0.224-0.5-0.501-0.5zm-2.282,1.137h-0.734l-0.367-0.637,0.367-0.637h0.734l0.367,0.637-0.367,0.637zm15.987-14.42c0.513-0.859,0.809-1.86,0.809-2.932,0-3.17-2.579-5.75-5.75-5.75-0.037,0-0.073,0-0.109,0.002-1.229-1.868-3.312-3.002-5.578-3.002-1.137,0-2.236,0.285-3.224,0.829-1.118-0.584-2.357-0.891-3.62-0.891-4.325-0.001-7.844,3.518-7.844,7.843,0,1.326,0.343,2.568,0.928,3.663-1.021,0.816-1.678,2.071-1.678,3.478,0,2.455,1.998,4.453,4.453,4.453h5.539c-0.24-0.266-0.39-0.614-0.39-1s0.15-0.734,0.39-1h-5.54c-1.353,0-2.453-1.102-2.453-2.453s1.098-2.45,2.44-2.45h0.004l1.154,0.075,0.077-0.976c0.219-2.773,2.57-4.945,5.352-4.945,1.882,0,3.595,0.964,4.583,2.578l0.447,0.731,0.791-0.33c0.492-0.207,1.019-0.311,1.557-0.311,1.664,0,3.137,1,3.752,2.549l0.248,0.623,0.67,0.008c1.338,0.016,2.426,1.114,2.426,2.449,0,1.353-1.102,2.453-2.455,2.453h-5.561c0.195,0.213,0.345,0.47,0.392,0.769,0.036-0.022,0.06-0.062,0.099-0.086,0.226-0.129,0.483-0.201,0.748-0.201,0.532,0,1.029,0.287,1.299,0.748l0.027,0.047,0.025-0.043c0.267-0.463,0.765-0.752,1.299-0.752,0.266,0,0.525,0.072,0.754,0.205,0.344,0.196,0.591,0.521,0.695,0.907,0.035,0.136,0.046,0.271,0.045,0.406h0.178c2.456,0,4.455-1.998,4.455-4.453,0-1.279-0.561-2.427-1.434-3.241zm-1.755-1.01c-0.184-0.055-0.365-0.111-0.559-0.143-1.035-1.985-3.07-3.236-5.348-3.236-0.526,0-1.045,0.067-1.547,0.2-1.39-1.809-3.517-2.868-5.83-2.868-3.513,0-6.525,2.523-7.219,5.891-0.112,0.016-0.216,0.054-0.326,0.078-0.461-0.836-0.732-1.792-0.732-2.813,0-3.222,2.622-5.844,5.844-5.844,1.096,0,2.169,0.311,3.104,0.9l0.555,0.35,0.542-0.371c0.781-0.534,1.695-0.816,2.643-0.816,1.752,0,3.347,0.968,4.156,2.527l0.325,0.625,0.798-0.11c0.135-0.019,0.268-0.042,0.407-0.042,2.067,0,3.75,1.682,3.75,3.75,0.001,0.709-0.217,1.359-0.563,1.922zm-1.613,10.48h-1.05l-0.366-0.637,0.524-0.908c0.137-0.239,0.055-0.545-0.187-0.686-0.239-0.14-0.545-0.057-0.685,0.186l-0.522,0.908h-0.732l-0.521-0.908c-0.142-0.239-0.445-0.322-0.687-0.186-0.238,0.141-0.32,0.443-0.183,0.686l0.524,0.908-0.367,0.637h-1.049c-0.276,0-0.5,0.224-0.5,0.5,0,0.273,0.224,0.5,0.5,0.5h1.049l0.367,0.636-0.524,0.909c-0.14,0.238-0.058,0.545,0.183,0.683,0.079,0.046,0.166,0.067,0.25,0.067,0.174,0,0.342-0.09,0.437-0.25l0.522-0.909h0.732l0.525,0.909c0.093,0.16,0.261,0.25,0.434,0.25,0.085,0,0.171-0.021,0.249-0.067,0.239-0.138,0.321-0.442,0.185-0.683l-0.523-0.909,0.365-0.636h1.052c0.274,0,0.5-0.227,0.5-0.5-0.002-0.276-0.225-0.5-0.502-0.5zm-2.282,1.136h-0.734l-0.367-0.636,0.367-0.637h0.734l0.367,0.637-0.367,0.636zm-4.018-4.413h-1.048l-0.367-0.637,0.524-0.908c0.138-0.239,0.056-0.545-0.184-0.684-0.239-0.142-0.546-0.059-0.683,0.184l-0.524,0.908h-0.735l-0.523-0.908c-0.14-0.239-0.445-0.322-0.684-0.184-0.239,0.139-0.321,0.441-0.183,0.684l0.524,0.909-0.367,0.636h-1.049c-0.276,0-0.5,0.225-0.5,0.5s0.224,0.5,0.5,0.5h1.049l0.367,0.636-0.524,0.909c-0.139,0.239-0.057,0.545,0.183,0.684,0.079,0.045,0.165,0.066,0.25,0.066,0.173,0,0.341-0.09,0.434-0.25l0.525-0.909h0.732l0.525,0.909c0.092,0.16,0.26,0.25,0.434,0.25,0.085,0,0.171-0.021,0.249-0.066,0.239-0.139,0.321-0.441,0.184-0.684l-0.524-0.909,0.367-0.636h1.051c0.275,0,0.5-0.225,0.5-0.5s-0.225-0.5-0.503-0.5zm-2.281,1.136h-0.734l-0.367-0.636,0.367-0.637h0.734l0.367,0.637-0.367,0.636z" fill="#FFF"/>
</svg>
