<?xml version="1.0" encoding="UTF-8" standalone="no"?>
<svg xmlns:rdf="http://www.w3.org/1999/02/22-rdf-syntax-ns#" xmlns="http://www.w3.org/2000/svg" height="74.219" width="85.941" version="1.1" xmlns:cc="http://creativecommons.org/ns#" xmlns:dc="http://purl.org/dc/elements/1.1/" viewBox="0 0 27.501001 23.75">
	<metadata>
		<rdf:RDF>
			<cc:Work rdf:about="">
				<dc:format>image/svg+xml</dc:format>
				<dc:type rdf:resource="http://purl.org/dc/dcmitype/StillImage"/>
				<dc:title/>
			</cc:Work>
		</rdf:RDF>
	</metadata>
	<path d="m4.453,14.75h18.593c2.456,0,4.455-1.998,4.455-4.453,0-2.202-1.63-4.051-3.748-4.393-1.035-1.985-3.07-3.236-5.348-3.236-0.526,0-1.045,0.067-1.547,0.2-1.39-1.809-3.517-2.868-5.83-2.868-3.513,0-6.525,2.523-7.219,5.891-2.151,0.313-3.809,2.17-3.809,4.406,0.001,2.455,1.998,4.453,4.453,4.453zm-0.013-6.903h0.004l1.154,0.075,0.077-0.976c0.219-2.773,2.57-4.945,5.352-4.945,1.882,0,3.595,0.964,4.583,2.578l0.447,0.731,0.791-0.33c0.492-0.207,1.019-0.311,1.557-0.311,1.664,0,3.137,1,3.752,2.549l0.248,0.623,0.67,0.008c1.338,0.016,2.426,1.114,2.426,2.449,0,1.353-1.102,2.453-2.455,2.453h-18.593c-1.353,0-2.453-1.101-2.453-2.453,0.001-1.352,1.099-2.451,2.44-2.451zm18.606,7.903h-18.593c-1.829,0-3.446-0.908-4.436-2.294,0.086,2.38,2.036,4.294,4.437,4.294h18.592c2.402,0,4.354-1.915,4.439-4.296-0.99,1.387-2.609,2.296-4.439,2.296zm0,3h-18.593c-1.829,0-3.446-0.908-4.436-2.294,0.086,2.38,2.036,4.294,4.437,4.294h18.592c2.402,0,4.354-1.915,4.439-4.296-0.99,1.387-2.609,2.296-4.439,2.296zm0,3h-18.593c-1.829,0-3.446-0.908-4.436-2.294,0.086,2.38,2.036,4.294,4.437,4.294h18.592c2.402,0,4.354-1.915,4.439-4.296-0.99,1.387-2.609,2.296-4.439,2.296z" fill="#FFF"/>
</svg>
